<svg width="28" height="27" viewBox="0 0 28 27" fill="none" xmlns="http://www.w3.org/2000/svg">
<g id="Frame 2609423">
<g id="Group 238268">
<path id="Vector" d="M19.2967 7.75419C18.763 7.17145 17.9331 6.38489 17.5801 8.16075C17.4601 8.76467 17.1796 9.23014 16.9392 9.60493C16.68 8.29364 15.9007 6.93638 15.1662 6.02143C14.8914 5.67897 13.9161 4.31794 13.7286 2.04106C13.7006 1.70112 13.2969 1.54183 13.0446 1.7708C10.632 3.96112 9.30742 6.97355 9.25839 10.3647C9.25839 10.3647 8.25365 9.51783 7.70791 7.94238C7.56083 7.51803 6.9921 7.43705 6.74554 7.81237C6.69813 7.88438 6.65432 7.95657 6.61481 8.02661C4.75329 11.3183 3.85773 15.3154 4.68559 19.0343C6.57081 27.5159 22.0232 27.2588 22.971 17.7702C23.2857 14.6058 22.0677 10.7779 19.2967 7.75419Z" fill="#F8C06D"/>
<path id="Vector_2" d="M8.2734 20.7173C7.44554 17.3906 8.3411 13.815 10.2026 10.8706C10.2421 10.8079 10.2861 10.7435 10.3334 10.679C10.5801 10.3434 11.1488 10.4157 11.2957 10.7952C11.8415 12.2045 12.8462 12.9622 12.8462 12.9622C12.8866 10.4696 13.7895 8.2069 15.4479 6.39208C15.0771 5.87849 13.9425 4.64011 13.7286 2.04106C13.7006 1.70112 13.2969 1.54183 13.0446 1.7708C10.632 3.96112 9.30742 6.97356 9.25839 10.3647C9.25839 10.3647 8.25365 9.51783 7.70791 7.94257C7.56101 7.51822 6.99211 7.43723 6.74554 7.81255C6.69813 7.88456 6.65432 7.95675 6.61481 8.02679C4.7533 11.3183 3.85773 15.3155 4.68559 19.0344C5.45168 22.4815 8.59898 24.5531 12.0785 25.053C10.2015 24.1312 8.75898 22.6716 8.2734 20.7173Z" fill="#FF4C01"/>
</g>
</g>
</svg>
